<?xml version="1.0" encoding="UTF-8"?>
<svg version="1.1" xmlns="http://www.w3.org/2000/svg" viewBox="0 0 512 512">
    <path fill="#3494c4" d="M256,0C114.837,0,0,114.843,0,256s114.837,256,256,256s256-114.843,256-256S397.163,0,256,0z M289.391,389.565
			c0,18.442-14.949,33.391-33.391,33.391s-33.391-14.949-33.391-33.391V222.609c0-18.442,14.949-33.391,33.391-33.391
			s33.391,14.949,33.391,33.391V389.565z M256,155.826c-18.442,0-33.391-14.949-33.391-33.391S237.558,89.044,256,89.044
			s33.391,14.949,33.391,33.391S274.442,155.826,256,155.826z" />
</svg>
