<?xml version="1.0" encoding="UTF-8"?>
<svg id="hexagon" xmlns="http://www.w3.org/2000/svg" viewBox="0 0 640 640">
  <path d="M595.66,227.13L493.4,50C475.53,19.06,442.52,0,406.79,0H202.26c-35.72,0-68.73,19.06-86.6,50L13.4,227.13c-17.87,30.94-17.87,69.06,0,100l102.26,177.13c17.87,30.94,50.88,50,86.61,50h204.53c35.72,0,68.73-19.06,86.6-50l102.26-177.13c17.87-30.94,17.87-69.06,0-100Zm-286.35,182.07c-7.25,7.4-16.96,11.2-26.74,11.2-8.51,0-17.06-2.88-24.09-8.77l-134.06-112.49c-15.86-13.31-17.93-36.96-4.62-52.83,7.42-8.84,18.04-13.39,28.75-13.39,8.5,0,17.06,2.88,24.08,8.77l105.36,88.41,153.04-182.03c13.33-15.85,36.99-17.9,52.84-4.57,8.82,7.41,13.37,18.03,13.37,28.72,0,8.52-2.89,17.08-8.8,24.11" fill="#4b6eaf"/>
</svg>